<?xml version="1.0" encoding="UTF-8"?>
<svg id="Layer_1" data-name="Layer 1" xmlns="http://www.w3.org/2000/svg" viewBox="0 0 1028.09 996.54">
  <defs>
    <style>
      .cls-1 {
        fill: none;
      }

      .cls-1, .cls-2, .cls-3 {
        stroke-miterlimit: 10;
      }

      .cls-1, .cls-3 {
        stroke: #000;
      }

      .cls-2 {
        stroke: #fff;
      }

      .cls-3 {
        fill: #fff;
      }
    </style>
  </defs>
  <rect class="cls-2" x="103.09" y="82.08" width="833" height="834"/>
  <path class="cls-3" d="m500.04.63C281-4.78,15.74,161.4,1.14,391.62c-11.17,176.15,126.41,358.16,276.82,406.63,118.3,38.12,193.37-22.86,309.66,43.79,104.52,59.9,105.29,144.35,173.6,153.27,95.42,12.46,220.44-135.84,254.92-278.38C1084.01,436.4,842.15,9.07,500.04.63Z"/>
  <path class="cls-2" d="m502.17,76.21c-185.77-4.58-410.74,136.36-423.13,331.6-9.47,149.39,107.21,303.76,234.78,344.87,100.33,32.33,164-19.38,262.63,37.14,88.64,50.8,89.3,122.43,147.23,129.99,80.93,10.56,186.96-115.21,216.21-236.1,57.56-237.92-147.57-600.34-437.72-607.5Z"/>
  <path class="cls-3" d="m503.8,134.35c-160.18-3.95-354.16,117.57-364.84,285.92-8.17,128.81,92.44,261.91,202.43,297.36,86.51,27.88,141.41-16.71,226.45,32.02,76.43,43.8,77,105.56,126.95,112.08,69.78,9.11,161.2-99.34,186.42-203.58,49.63-205.14-127.24-517.64-377.42-523.81Z"/>
  <path class="cls-3" d="m505.09,180.08c-140.05-3.45-309.66,102.8-319,250-7.14,112.63,80.83,229.01,177,260,75.64,24.38,123.64-14.61,198,28,66.83,38.3,67.33,92.3,111,98,61.01,7.96,140.95-86.86,163-178,43.39-179.37-111.25-452.6-330-458Z"/>
  <path class="cls-2" d="m729.82,554.99s-91.37,26.74-164.02.1l-72.65-26.64,3.46-18.46s104.73,47.43,171.84,14.21c41.14-20.36,43.24-35.1,43.24-35.1l-14.14-50.64,86.86,56.62-42.41,106.98-12.18-47.07Z"/>
  <path class="cls-2" d="m493.45,505.03s-2.84-29.68-22.8-46.47c-19.96-16.79-43.59-21.93-43.59-21.93l16.62-20.78-35.18,5.65-3.24,32.47,11.85-8.97s29.07,4.66,38.96,16.66c9.89,12,17.05,49.76,17.05,49.76l20.32-6.39Z"/>
  <polyline class="cls-1" points="572.54 452.45 613.98 473.29 633.36 519.62 648.77 514.53"/>
  <path class="cls-1" d="m529.6,504.66c-8.56,4.71-25.99-10.47-25.99-10.47,0,0,56.18-12.51,75.6-52.8s25.82-72.92,25.82-72.92"/>
  <polyline class="cls-3" points="595.14 399.5 567.22 397.33 566.45 417.09 547.29 430.07"/>
  <polyline class="cls-3" points="596.5 398.28 615.98 429.17 634.36 421.49"/>
  <path class="cls-3" d="m255.26,398.28l46.67,15.41,10.67-45.22v83.97s54.5-21.38,56-22.38-43.5-132.99-43.5-132.99l-69.83,101.21Z"/>
  <ellipse class="cls-3" cx="608.13" cy="361.16" rx="33.35" ry="26.47" transform="translate(-42.61 84.03) rotate(-7.64)"/>
  <path class="cls-2" d="m476.09,219.08s32.33-27,55.17,0-62.67,78-62.67,78l85.74-12.17"/>
  <path class="cls-3" d="m270.29,392.04l34.29,11.32,7.84-33.23v61.7s40.04-15.71,41.15-16.44-31.96-97.71-31.96-97.71l-51.31,74.36Z"/>
  <circle class="cls-2" cx="485.59" cy="524.58" r="25.5"/>
  <path d="m347.45,638.59l7.35,29.27c.43,1.73,2.81,1.22,2.95-.4.86-10.16-1.66-20.61,1.11-30.59,1.11-3.99,3.04-7.79,6.2-10.53,2.68-2.33,6.2-3.34,9.72-3.07s7.09,2.18,8.6,5.65c.77,1.77,3.35.24,2.59-1.51-3.26-7.5-13.43-8.8-20.04-5.29-8.58,4.56-11.17,15.5-11.36,24.42-.15,6.98.78,13.95.18,20.93l2.95-.4-7.35-29.27c-.47-1.87-3.36-1.08-2.89.8h0Z"/>
  <path d="m404.58,645.21c6.84.21,13.35-2.08,19.51-4.84,5.54-2.48,11.25-5.38,15.04-10.29,3.45-4.46,5.12-10.64,2.77-15.98-1.85-4.2-5.99-6.85-10.4-7.7s-9.39-.2-13.42,2.05c-4.97,2.77-8.69,7.34-11.64,12.12-3.34,5.41-6.01,11.24-8.86,16.91-2.52,5-5.04,10.34-5.21,16.05-.09,2.92.6,5.89,2.34,8.28s5,3.76,6.52,6.4c1.65,2.87.92,7.12.17,10.16-.85,3.42-2.39,6.66-4.54,9.45-.5.65-.62,1.49,0,2.12.51.52,1.63.64,2.12,0,3.61-4.66,5.8-10.23,6.12-16.14.15-2.72-.11-5.61-1.78-7.86-1.53-2.06-3.83-3.25-5.55-5.12-3.58-3.88-2.5-9.7-.96-14.22,1.92-5.6,5-10.85,7.66-16.12,4.33-8.57,9.84-19.37,20.29-21.22,3.88-.69,8.35-.05,11.53,2.4,4,3.07,4.51,8.42,2.67,12.86-2.48,6.02-8.41,9.5-14.02,12.17-6.37,3.02-13.18,5.73-20.35,5.51-1.93-.06-1.93,2.94,0,3h0Z"/>
  <path d="m508.64,607.76c-5.09-6.28-14.4-6.88-21.42-3.9-4.17,1.77-7.78,4.6-10.99,7.77s-6.41,6.84-8.9,10.75-4.34,8.28-4.26,12.9c.07,4.13,1.8,8.04,4.81,10.86,2.85,2.67,6.67,4.34,10.6,4.34s7.74-1.71,10.57-4.38c3.61-3.4,4.89-7.84,4.97-12.69.06-4.04-.24-10.96,5-12.05l-1.85-1.85c-1.83,11.44-3.53,24.62,4.64,34.16,3.57,4.17,8.66,6.18,13.82,7.63,5.14,1.45,10.21,2.7,14.77,5.6,8.71,5.55,14.43,15.57,12.55,26.04-.88,4.91-3.32,9.61-7.34,12.66-3.77,2.86-8.59,4.26-13.3,3.85-5.25-.46-9.74-3.53-12.18-8.17-2.3-4.37-2.61-9.8-.12-14.15.96-1.68-1.63-3.19-2.59-1.51-4.89,8.56-.94,20.48,7.79,24.87,9.46,4.76,21.48.83,27.16-7.85,6.12-9.36,4.75-21.89-1.91-30.55-3.27-4.25-7.61-7.66-12.47-9.91-5.29-2.46-11.13-3.22-16.52-5.38-6.16-2.46-10.11-7.47-11.83-13.8-2.01-7.42-.75-15.23.44-22.67.18-1.15-.65-2.09-1.85-1.85-3.54.74-5.78,3.99-6.64,7.32-1.1,4.26.11,8.8-1.27,13-2.21,6.74-10.15,10.57-16.68,7.64-3.09-1.39-5.76-4.02-6.87-7.26-1.37-3.96-.51-8.21,1.26-11.89,1.88-3.9,4.6-7.31,7.48-10.52,2.72-3.02,5.65-5.92,9.08-8.12,6.6-4.22,16.46-5.53,21.94,1.24,1.21,1.5,3.33-.63,2.12-2.12h0Z"/>
  <path d="m532.19,610.34c-1.01,11.72,3.23,23.59,11.34,32.09.9.94,2.57.22,2.56-1.06-.05-4.93-.11-9.87-.16-14.8-.05-4.62-.51-9.5.36-14.07.73-3.84,2.73-7.2,6.02-9.38,3.04-2.01,6.75-2.86,10.33-2.05,4.14.93,7.65,3.66,9.57,7.44.87,1.72,3.46.21,2.59-1.51-3.93-7.74-13.49-11.29-21.45-7.83-3.76,1.63-6.98,4.67-8.66,8.43-2.08,4.64-1.86,9.82-1.8,14.79.07,6.33.14,12.66.21,19l2.56-1.06c-7.6-7.96-11.41-19.02-10.46-29.97.17-1.92-2.83-1.91-3,0h0Z"/>
  <path d="m588.42,652.39c12.36,4.78,26.94,1.26,36.66-7.46,4.75-4.26,8.79-10.18,9.72-16.61.46-3.15.28-6.54-1.31-9.37-1.76-3.13-5.1-4.81-8.64-4.86-3.84-.05-7.6,1.48-10.96,3.2-3.14,1.6-6.05,3.63-8.71,5.93-5.32,4.62-9.55,10.52-12.32,16.99s-4.16,13.59-3.65,20.65c.3,4.23,1.16,8.33,3.86,11.71,2.47,3.08,5.84,5.59,8.94,8.01,3.27,2.55,6.73,4.87,10.64,6.32,4.2,1.56,8.57,1.63,12.94.85,4.74-.85,9.4-2.32,14.05-3.56s9.41-2.52,14.12-3.78c2.31-.62,4.63-1.24,6.94-1.86,1.86-.5,1.07-3.39-.8-2.89-8.61,2.31-17.23,4.61-25.84,6.92-4.23,1.13-8.53,2.53-12.94,2.69-3.92.15-7.62-.95-11.04-2.83s-6.31-4.2-9.22-6.64c-2.83-2.36-6-4.78-7.37-8.33-1.27-3.28-1.46-7.05-1.37-10.53.08-3.2.56-6.38,1.39-9.47,3.31-12.41,12.15-23.39,23.99-28.58,3.07-1.34,6.94-2.59,10.21-1.26,2.67,1.09,4.01,3.76,4.26,6.52.53,5.9-2.54,11.68-6.35,15.98-7.81,8.8-20.59,13.33-32.15,10.7-1.46-.33-2.88-.78-4.27-1.32-1.8-.7-2.58,2.2-.8,2.89h0Z"/>
  <path d="m680.33,580.47c-4.47,23.01-6.16,47.29.66,70.03,2.9,9.68,7.28,19,13.26,27.16,2.97,4.06,6.31,7.84,10.05,11.22,1.83,1.66,3.76,3.48,6.12,4.35,2.7,1,5.18-.07,7.36-1.7,8.96-6.68,14.77-16.9,16.13-27.97.23-1.91-2.77-1.89-3,0-1.12,9.14-5.77,17.73-12.69,23.78-1.67,1.47-4.01,3.78-6.42,3.18-2.18-.54-4.06-2.57-5.67-4.04-3.52-3.22-6.71-6.8-9.52-10.66-11.8-16.26-16.8-36.32-17.17-56.19-.24-12.89,1.33-25.73,3.79-38.36.37-1.89-2.52-2.69-2.89-.8h0Z"/>
  <path d="m658.91,643.21c12.41-9.78,26.77-16.96,42.01-21.1,1.86-.51,1.07-3.4-.8-2.89-15.77,4.29-30.51,11.76-43.34,21.87-1.52,1.19.62,3.3,2.12,2.12h0Z"/>
</svg>